<svg version="1.0" xmlns="http://www.w3.org/2000/svg"
    width="256.000000pt" height="256.000000pt" viewBox="0 0 256.000000 256.000000"
    preserveAspectRatio="xMidYMid meet">
    <g transform="translate(0.000000,256.000000) scale(0.100000,-0.100000)"
       fill="#FF0000" stroke="none">
        <path d="M220 2210 c-67 -8 -88 -19 -128 -64 -36 -41 -49 -95 -35 -146 5 -19
    61 -116 125 -215 63 -99 163 -256 223 -350 60 -93 172 -269 250 -390 78 -121
    184 -287 235 -370 142 -228 225 -349 259 -378 79 -66 186 -60 267 15 26 24 94
    121 166 235 68 108 146 231 173 274 28 43 72 113 99 156 28 43 95 150 151 238
    56 88 115 180 132 205 16 25 46 70 65 100 187 290 261 406 278 439 52 103 -5
    226 -116 251 -46 11 -2062 11 -2144 0z m1844 -258 c2 -4 -38 -76 -89 -158
    l-94 -151 -218 -6 c-120 -4 -264 -7 -320 -7 -91 0 -105 -2 -124 -21 -29 -29
    -21 -53 55 -168 35 -53 102 -156 150 -229 l86 -133 -42 -81 c-23 -44 -61 -104
    -86 -132 -24 -28 -49 -61 -55 -73 -5 -13 -15 -23 -22 -23 -12 0 -76 91 -182
    260 -33 52 -146 231 -252 398 -106 167 -197 316 -203 333 -14 39 -4 85 27 126
    31 39 57 55 110 64 57 9 1253 11 1259 1z"/>
    </g>
</svg>